HIERARCHY
ROOT Hips
{
  OFFSET -4.35178 90.3298 111.633
  CHANNELS 6 Xposition Yposition Zposition Zrotation Xrotation Yrotation
  JOINT LeftUpLeg
  {
    OFFSET 0.103456 1.85784 10.5485
    CHANNELS 6 Xposition Yposition Zposition Zrotation Xrotation Yrotation
    JOINT LeftLeg
    {
      OFFSET 43.5 -4.2e-05 0
      CHANNELS 6 Xposition Yposition Zposition Zrotation Xrotation Yrotation
      JOINT LeftFoot
      {
        OFFSET 42.3722 1.9e-05 0
        CHANNELS 6 Xposition Yposition Zposition Zrotation Xrotation Yrotation
        JOINT LeftToe
        {
          OFFSET 17.3 0 0
          CHANNELS 6 Xposition Yposition Zposition Zrotation Xrotation Yrotation
          End Site
          {
            OFFSET 0 0 0
          }
        }
      }
    }
  }
  JOINT RightUpLeg
  {
    OFFSET 0.103456 1.85782 -10.5485
    CHANNELS 6 Xposition Yposition Zposition Zrotation Xrotation Yrotation
    JOINT RightLeg
    {
      OFFSET 43.5 -2.7e-05 0
      CHANNELS 6 Xposition Yposition Zposition Zrotation Xrotation Yrotation
      JOINT RightFoot
      {
        OFFSET 42.3723 0 0
        CHANNELS 6 Xposition Yposition Zposition Zrotation Xrotation Yrotation
        JOINT RightToe
        {
          OFFSET 17.3 0 1.7e-05
          CHANNELS 6 Xposition Yposition Zposition Zrotation Xrotation Yrotation
          End Site
          {
            OFFSET 0 0 0
          }
        }
      }
    }
  }
  JOINT Spine
  {
    OFFSET 6.90197 -2.60373 0
    CHANNELS 6 Xposition Yposition Zposition Zrotation Xrotation Yrotation
    JOINT Spine1
    {
      OFFSET 12.5881 0 0
      CHANNELS 6 Xposition Yposition Zposition Zrotation Xrotation Yrotation
      JOINT Spine2
      {
        OFFSET 12.3432 -1.8e-05 0
        CHANNELS 6 Xposition Yposition Zposition Zrotation Xrotation Yrotation
        JOINT Neck
        {
          OFFSET 25.8329 2.3e-05 0
          CHANNELS 6 Xposition Yposition Zposition Zrotation Xrotation Yrotation
          JOINT Head
          {
            OFFSET 11.7666 0 0
            CHANNELS 6 Xposition Yposition Zposition Zrotation Xrotation Yrotation
            End Site
            {
              OFFSET 0 0 0
            }
          }
        }
        JOINT LeftShoulder
        {
          OFFSET 19.7459 -1.48035 6.0001
          CHANNELS 6 Xposition Yposition Zposition Zrotation Xrotation Yrotation
          JOINT LeftArm
          {
            OFFSET 11.2841 1.8e-05 -2e-05
            CHANNELS 6 Xposition Yposition Zposition Zrotation Xrotation Yrotation
            JOINT LeftForeArm
            {
              OFFSET 33 -1.3e-05 1.9e-05
              CHANNELS 6 Xposition Yposition Zposition Zrotation Xrotation Yrotation
              JOINT LeftHand
              {
                OFFSET 25.2 3.2e-05 1.1e-05
                CHANNELS 6 Xposition Yposition Zposition Zrotation Xrotation Yrotation
                End Site
                {
                  OFFSET 0 0 0
                }
              }
            }
          }
        }
        JOINT RightShoulder
        {
          OFFSET 19.7461 -1.48036 -6.00008
          CHANNELS 6 Xposition Yposition Zposition Zrotation Xrotation Yrotation
          JOINT RightArm
          {
            OFFSET 11.2841 0 0
            CHANNELS 6 Xposition Yposition Zposition Zrotation Xrotation Yrotation
            JOINT RightForeArm
            {
              OFFSET 33.0001 1.6e-05 0
              CHANNELS 6 Xposition Yposition Zposition Zrotation Xrotation Yrotation
              JOINT RightHand
              {
                OFFSET 25.1998 0.000123 0.000432
                CHANNELS 6 Xposition Yposition Zposition Zrotation Xrotation Yrotation
                End Site
                {
                  OFFSET 0 0 0
                }
              }
            }
          }
        }
      }
    }
  }
}
MOTION
Frames:	7
Frame Time:	0.0333333
-83.1371 84.9092 -107.914 -73.4895 -49.2013 -163.471 0.103456 1.85784 10.5485 10.0243 11.5815 -167.364 43.5 -4.2e-05 1e-05 -63.8583 2.82136 -8.45715 42.3722 1.9e-05 0 57.0382 29.5691 -13.6362 17.3 7.10543e-15 3e-06 21.4546 -1e-06 0.003093 0.103456 1.85782 -10.5485 -7.86125 -18.2809 -172.036 43.5 -2.7e-05 4e-06 -28.0339 15.3836 1.82756 42.3723 0 1e-05 85.0536 -7.68664 -7.27454 17.3 -6e-06 1.7e-05 21.4546 -1.9e-05 -0.003116 6.90197 -2.60373 -3e-06 8.96595 -2.94339 0.634358 12.5881 1e-05 8e-06 8.03884 -5.65702 1.79907 12.3432 -1.8e-05 -5e-06 7.81293 -5.41514 2.16472 25.8329 2.3e-05 7e-06 4.60535 -16.8567 2.17343 11.7666 -8e-06 -6e-06 -13.0936 -20.9791 2.41675 19.7459 -1.48035 6.0001 -179.478 -0.768202 -79.2699 11.2841 1.8e-05 -2e-05 2.96052 -18.771 56.0154 33 -1.3e-05 1.9e-05 -54.2811 0.717536 -7.89329 25.2 3.2e-05 1.1e-05 -5.68548 33.9833 -5.18854 19.7461 -1.48036 -6.00008 -171.523 -5.8177 75.7135 11.2841 2.13163e-14 -1e-06 -33.3866 -16.0722 -45.8877 33.0001 1.6e-05 -1e-06 -33.8022 -1.39106 7.51184 25.1998 0.000123 0.000432 -4.83349 -14.2763 5.07752 
-81.156 85.4534 -110.761 -73.9575 -46.4823 -164.866 0.103456 1.85784 10.5485 3.96339 11.4397 -165.15 43.5 -4.2e-05 1e-05 -70.9833 3.38577 -6.53891 42.3722 1.9e-05 0 59.6281 24.3519 -9.97077 17.3 0 3e-06 21.4546 -1e-06 0.003093 0.103456 1.85782 -10.5485 -3.90287 -18.0957 -171.132 43.5 -2.7e-05 4e-06 -26.7628 14.9691 1.91103 42.3723 0 1e-05 86.3319 -7.63872 -4.96896 17.3 -6e-06 1.7e-05 21.4546 -1.9e-05 -0.003116 6.90197 -2.60373 -3e-06 9.03657 -2.93125 0.49825 12.5881 1e-05 8e-06 8.17422 -5.65356 1.52901 12.3432 -1.8e-05 -5e-06 7.94985 -5.42629 1.89523 25.8329 2.3e-05 7e-06 4.82885 -16.4439 2.10226 11.7666 -8e-06 -6e-06 -10.9715 -21.1798 3.78749 19.7459 -1.48035 6.0001 -178.87 -0.226794 -78.7697 11.2841 1.8e-05 -2e-05 0.396268 -15.6801 55.0944 33 -1.3e-05 1.9e-05 -51.6586 3.10641 -8.01167 25.2 3.2e-05 1.1e-05 -6.42291 35.5593 -5.58393 19.7461 -1.48036 -6.00008 -172.144 -5.5673 76.2569 11.2841 -7.10543e-15 -1e-06 -34.4293 -15.5594 -47.1024 33.0001 1.6e-05 -1e-06 -35.4422 -0.83364 7.54159 25.1998 0.000123 0.000432 -5.14913 -14.3529 5.38357 
-79.2589 86.0979 -113.43 -75.0416 -42.9146 -166.684 0.103456 1.85784 10.5485 -2.11256 11.3548 -163.584 43.5 -4.2e-05 1e-05 -75.1026 3.53538 -5.34783 42.3722 1.9e-05 -2.84217e-14 60.2943 17.1974 -2.40204 17.3 0 3e-06 21.4546 -1e-06 0.003093 0.103456 1.85782 -10.5485 -0.0702741 -17.2488 -170.433 43.5 -2.7e-05 4e-06 -24.6282 14.0589 2.02242 42.3723 -7.10543e-15 1e-05 86.6025 -7.46066 -2.66514 17.3 -6e-06 1.7e-05 21.4546 -1.9e-05 -0.003116 6.90197 -2.60373 -3e-06 8.98592 -2.77977 0.268002 12.5881 1e-05 8e-06 8.05629 -5.39321 1.04043 12.3432 -1.8e-05 -5e-06 7.82915 -5.19841 1.39115 25.8329 2.3e-05 7e-06 5.02071 -15.9399 1.82128 11.7666 -8e-06 -6e-06 -8.32338 -21.2061 5.05656 19.7459 -1.48035 6.0001 -178.259 0.128542 -78.2948 11.2841 1.8e-05 -2e-05 -2.03082 -12.3411 54.2707 33 -1.3e-05 1.9e-05 -48.1211 4.18438 -7.90754 25.2 3.2e-05 1.1e-05 -6.73705 36.0337 -5.15515 19.7461 -1.48036 -6.00008 -172.781 -5.34556 76.6123 11.2841 -7.10543e-15 -1e-06 -35.4112 -15.1419 -48.3613 33.0001 1.6e-05 -1e-06 -37.2943 -0.28857 7.70814 25.1998 0.000123 0.000432 -6.10328 -14.1309 5.5407 
-77.4808 86.6899 -116.049 -76.5836 -38.7571 -168.532 0.103456 1.85784 10.5485 -7.44967 11.0857 -163.143 43.5 -4.2e-05 1e-05 -75.6164 2.94653 -4.5145 42.3722 1.9e-05 0 60.7458 7.99475 5.40626 17.3 1.42109e-14 3e-06 21.4546 -1e-06 0.003093 0.103456 1.85782 -10.5485 2.61922 -15.4502 -170.538 43.5 -2.7e-05 4e-06 -23.0962 12.908 2.30638 42.3723 1.42109e-14 1e-05 86.5754 -6.9076 -0.56046 17.3 -6e-06 1.7e-05 21.4546 -1.9e-05 -0.003116 6.90197 -2.60373 -3e-06 8.85108 -2.56329 -0.0351098 12.5881 1e-05 8e-06 7.76552 -5.01761 0.391743 12.3432 -1.8e-05 -5e-06 7.53379 -4.8681 0.719861 25.8329 2.3e-05 7e-06 5.24623 -15.2952 1.34415 11.7666 -8e-06 -6e-06 -6.39946 -20.8698 6.03451 19.7459 -1.48035 6.0001 -177.315 0.629696 -77.7651 11.2841 1.8e-05 -2e-05 -3.67217 -9.21743 54.0631 33 -1.3e-05 1.9e-05 -44.3378 5.31052 -8.11727 25.2 3.2e-05 1.1e-05 -7.16711 36.3292 -4.71595 19.7461 -1.48036 -6.00008 -173.458 -5.14464 77.1142 11.2841 -1.42109e-14 -1e-06 -36.5669 -14.6914 -49.8199 33.0001 1.6e-05 -1e-06 -39.4591 -0.151191 8.1072 25.1998 0.000123 0.000432 -7.38522 -14.4548 6.19916 
-75.6235 87.0646 -118.733 -78.1148 -34.4601 -170.202 0.103456 1.85784 10.5485 -11.4865 10.3572 -163.128 43.5 -4.2e-05 1e-05 -72.2733 2.36528 -3.97507 42.3722 1.9e-05 2.84217e-14 62.6964 0.674845 11.5338 17.3 1.42109e-14 3e-06 21.4546 -1e-06 0.003093 0.103456 1.85782 -10.5485 4.96066 -13.1821 -170.772 43.5 -2.7e-05 4e-06 -21.5222 11.9905 2.18644 42.3723 -7.10543e-15 1e-05 87.1077 -6.52047 1.20879 17.3 -6e-06 1.7e-05 21.4546 -1.9e-05 -0.003116 6.90197 -2.60373 -3e-06 8.72018 -2.3268 -0.262856 12.5881 1e-05 8e-06 7.48674 -4.58793 -0.108645 12.3432 -1.8e-05 -5e-06 7.24844 -4.47449 0.193072 25.8329 2.3e-05 7e-06 5.55776 -14.8108 0.897996 11.7666 -8e-06 -6e-06 -6.39271 -20.4411 6.36118 19.7459 -1.48035 6.0001 -176.029 1.49917 -77.1388 11.2841 1.8e-05 -2e-05 -3.6774 -7.02465 54.7666 33 -1.3e-05 1.9e-05 -41.4163 5.48398 -8.32999 25.2 3.2e-05 1.1e-05 -6.64284 36.1509 -4.36703 19.7461 -1.48036 -6.00008 -174.106 -4.5824 78.1229 11.2841 1.42109e-14 -1e-06 -37.4338 -14.0196 -51.2239 33.0001 1.6e-05 -1e-06 -42.2672 -0.215641 8.55806 25.1998 0.000123 0.000432 -8.59207 -14.8738 6.79989 
-73.8605 87.3167 -121.382 -79.6314 -30.6303 -171.457 0.103456 1.85784 10.5485 -15.1157 9.54803 -164.101 43.5 -4.2e-05 1e-05 -66.7872 0.353437 -2.39404 42.3722 1.9e-05 0 67.3112 -2.30147 15.2523 17.3 -7.10543e-15 3e-06 21.4546 -1e-06 0.003093 0.103456 1.85782 -10.5485 6.61075 -10.8607 -171.54 43.5 -2.7e-05 4e-06 -20.2779 11.4226 2.19523 42.3723 7.10543e-15 1e-05 87.889 -6.00469 2.37333 17.3 -6e-06 1.7e-05 21.4546 -1.9e-05 -0.003116 6.90197 -2.60373 -3e-06 8.55848 -2.16989 -0.499844 12.5881 1e-05 8e-06 7.15024 -4.31748 -0.614295 12.3432 -1.8e-05 -5e-06 6.90843 -4.24098 -0.328927 25.8329 2.3e-05 7e-06 5.96651 -14.136 0.368087 11.7666 -8e-06 -6e-06 -6.95713 -19.9138 6.86827 19.7459 -1.48035 6.0001 -174.685 2.59042 -76.4211 11.2841 1.8e-05 -2e-05 -3.07336 -5.37402 55.8842 33 -1.3e-05 1.9e-05 -38.7992 5.16329 -8.75146 25.2 3.2e-05 1.1e-05 -6.2212 35.5602 -3.92108 19.7461 -1.48036 -6.00008 -174.887 -3.93194 78.8196 11.2841 0 -1e-06 -38.0935 -13.6365 -52.3635 33.0001 1.6e-05 -1e-06 -45.1463 -0.178474 9.19358 25.1998 0.000123 0.000432 -9.7468 -14.9353 7.12445 
-72.0461 87.4606 -124.022 -81.1945 -26.9352 -172.531 0.103456 1.85784 10.5485 -17.3855 8.5998 -165.355 43.5 -4.2e-05 1e-05 -58.0934 -2.59271 -0.857744 42.3722 1.9e-05 0 71.4587 -4.60099 16.98 17.3 7.10543e-15 3e-06 21.4546 -1e-06 0.003093 0.103456 1.85782 -10.5485 7.33394 -8.62871 -172.648 43.5 -2.7e-05 4e-06 -20.326 11.0072 2.09327 42.3723 0 1e-05 88.9472 -5.96382 3.15304 17.3 -6e-06 1.7e-05 21.4546 -1.9e-05 -0.003116 6.90197 -2.60373 -3e-06 8.36516 -2.01398 -0.696771 12.5881 1e-05 8e-06 6.75294 -4.04176 -1.04019 12.3432 -1.8e-05 -5e-06 6.5071 -3.99825 -0.771753 25.8329 2.3e-05 7e-06 6.46168 -13.6539 0.00205189 11.7666 -8e-06 -6e-06 -7.6259 -19.7138 7.28388 19.7459 -1.48035 6.0001 -173.394 3.69197 -75.659 11.2841 1.8e-05 -2e-05 -2.22668 -4.09471 57.1927 33 -1.3e-05 1.9e-05 -36.6059 4.33475 -9.11402 25.2 3.2e-05 1.1e-05 -5.80686 34.5886 -3.26813 19.7461 -1.48036 -6.00008 -175.704 -3.09667 79.5746 11.2841 7.10543e-15 -1e-06 -38.6712 -13.4377 -53.4293 33.0001 1.6e-05 -1e-06 -47.7018 -0.0868728 9.75444 25.1998 0.000123 0.000432 -10.7623 -14.9873 7.43134 
